<svg xmlns="http://www.w3.org/2000/svg" width="15" height="11.667" viewBox="0 0 15 11.667">
  <path id="Icon_awesome-address-card" data-name="Icon awesome-address-card" d="M13.75,2.25H1.25A1.25,1.25,0,0,0,0,3.5v9.167a1.25,1.25,0,0,0,1.25,1.25h12.5A1.25,1.25,0,0,0,15,12.667V3.5A1.25,1.25,0,0,0,13.75,2.25ZM4.583,4.75A1.667,1.667,0,1,1,2.917,6.417,1.668,1.668,0,0,1,4.583,4.75ZM7.5,10.917a.546.546,0,0,1-.583.5H2.25a.546.546,0,0,1-.583-.5v-.5a1.64,1.64,0,0,1,1.75-1.5h.13a2.682,2.682,0,0,0,2.073,0h.13a1.64,1.64,0,0,1,1.75,1.5Zm5.833-1.375a.209.209,0,0,1-.208.208H9.375a.209.209,0,0,1-.208-.208V9.125a.209.209,0,0,1,.208-.208h3.75a.209.209,0,0,1,.208.208Zm0-1.667a.209.209,0,0,1-.208.208H9.375a.209.209,0,0,1-.208-.208V7.458a.209.209,0,0,1,.208-.208h3.75a.209.209,0,0,1,.208.208Zm0-1.667a.209.209,0,0,1-.208.208H9.375a.209.209,0,0,1-.208-.208V5.792a.209.209,0,0,1,.208-.208h3.75a.209.209,0,0,1,.208.208Z" transform="translate(0 -2.25)" fill="#009deb"/>
</svg>
