<svg xmlns="http://www.w3.org/2000/svg" width="50.947" height="52.284" viewBox="0 0 50.947 52.284">
  <g id="Grupo_1" data-name="Grupo 1" transform="translate(-648.608 -826.69)">
    <path id="Trazado_2" data-name="Trazado 2" d="M32.414,42.462s3.6-9.676,14.055-9.676,16.81,6.568,16.81,17.092S55.158,70.786,42.656,70.786c-13.667,0-19.565-11.231-20.484-15.363h-.565s5.35,19.708,25.2,19.708c14.426,0,25.2-11.161,25.2-23.557,0-9.907-6.849-22.933-20.731-22.938-14.144,0-19,12.625-19.353,13.9Z" transform="translate(627 803.844)" fill="#fff"/>
    <path id="Trazado_3" data-name="Trazado 3" d="M61.755,53.558s-3.736,9.625-14.19,9.48S30.849,56.236,31,45.713,39.409,24.921,51.909,25.1c13.666.19,19.407,11.5,20.267,15.646l.565.008s-5.075-19.78-24.92-20.057C33.4,20.492,22.47,31.5,22.3,43.9,22.16,53.8,28.826,66.923,42.706,67.121c14.142.2,19.174-12.359,19.545-13.626Z" transform="translate(626.814 806)" fill="#fff"/>
    <path id="Trazado_4" data-name="Trazado 4" d="M40.4,60.713l3.637-13.1H55.124c.969,0,1.836.283,1.377,2.331s-1.166,3.744-2.578,4.22c0,0,1.412.406.882,2.207a19.539,19.539,0,0,1-1.094,3.25c-.495.847-1.978,1.094-3.234,1.094H40.4Zm8.688-11.372-1.342,4.026h1.872c.388,0,.812.071,1.024-.707s.565-1.907.742-2.4.035-.918-.353-.918ZM47.5,54.992l-1.271,4.132h1.963c.237,0,.509.035.686-.636s.741-2.578.882-2.966-.035-.53-.353-.53Zm14.979-2.684,1.266-4.7H58.549l-1.329,4.7Zm-5.484.812-2.149,7.593h5.368l2.047-7.593Z" transform="translate(621.949 798.695)" fill="#fff"/>
  </g>
</svg>
