<svg xmlns="http://www.w3.org/2000/svg" width="12.341" height="12.341" viewBox="0 0 12.341 12.341">
  <path id="Icon_awesome-phone" data-name="Icon awesome-phone" d="M11.892.592,9.385.014a.582.582,0,0,0-.663.335l-1.157,2.7a.577.577,0,0,0,.166.675l1.461,1.2A8.933,8.933,0,0,1,4.921,9.19l-1.2-1.461a.578.578,0,0,0-.675-.166L.351,8.72a.585.585,0,0,0-.337.665l.578,2.507a.578.578,0,0,0,.564.448A11.183,11.183,0,0,0,12.34,1.156.578.578,0,0,0,11.892.592Z" transform="translate(0.001 0.001)" fill="#009deb"/>
</svg>
